<svg width="181" height="41" viewBox="0 0 181 41" fill="none" xmlns="http://www.w3.org/2000/svg">
<rect y="0.5" width="181" height="40" rx="4" fill="#6200EE"/>
<path d="M32 15.8333V25.1666M27.3333 20.5H36.6667" stroke="#FEFEFE" stroke-width="1.6" stroke-linecap="round" stroke-linejoin="round"/>
<path d="M58.352 26.644C57.2213 26.644 56.2507 26.4093 55.44 25.94C54.64 25.4707 54.0267 24.804 53.6 23.94C53.1733 23.0653 52.96 22.036 52.96 20.852C52.96 19.668 53.1733 18.644 53.6 17.78C54.0267 16.916 54.64 16.2493 55.44 15.78C56.2507 15.3107 57.2213 15.076 58.352 15.076C59.1627 15.076 59.8827 15.1987 60.512 15.444C61.1413 15.6787 61.6907 16.0253 62.16 16.484L61.616 17.684C61.104 17.236 60.5973 16.916 60.096 16.724C59.6053 16.5213 59.0347 16.42 58.384 16.42C57.136 16.42 56.1813 16.804 55.52 17.572C54.8587 18.34 54.528 19.4333 54.528 20.852C54.528 22.2707 54.8587 23.3693 55.52 24.148C56.1813 24.916 57.136 25.3 58.384 25.3C59.0347 25.3 59.6053 25.204 60.096 25.012C60.5973 24.8093 61.104 24.484 61.616 24.036L62.16 25.22C61.6907 25.6787 61.136 26.0307 60.496 26.276C59.8667 26.5213 59.152 26.644 58.352 26.644ZM64.1531 26.5V20.42C64.1531 20.1 64.1425 19.7747 64.1211 19.444C64.1105 19.1027 64.0838 18.772 64.0411 18.452H65.4491L65.6251 20.468L65.3851 20.484C65.4918 19.9933 65.6731 19.588 65.9291 19.268C66.1958 18.9373 66.5105 18.6973 66.8731 18.548C67.2465 18.388 67.6305 18.308 68.0251 18.308C68.1958 18.308 68.3398 18.3133 68.4571 18.324C68.5745 18.3347 68.6918 18.3613 68.8091 18.404L68.7771 19.7C68.6171 19.636 68.4678 19.5987 68.3291 19.588C68.2011 19.5667 68.0411 19.556 67.8491 19.556C67.3798 19.556 66.9745 19.6627 66.6331 19.876C66.3025 20.0893 66.0465 20.372 65.8651 20.724C65.6945 21.076 65.6091 21.4547 65.6091 21.86V26.5H64.1531ZM73.6456 26.644C72.3656 26.644 71.3523 26.276 70.6056 25.54C69.8696 24.804 69.5016 23.7907 69.5016 22.5C69.5016 21.6467 69.6616 20.9107 69.9816 20.292C70.3123 19.6627 70.7656 19.1773 71.3416 18.836C71.9176 18.484 72.5896 18.308 73.3576 18.308C74.0936 18.308 74.7176 18.468 75.2296 18.788C75.7416 19.0973 76.131 19.54 76.3976 20.116C76.6643 20.692 76.7976 21.3747 76.7976 22.164V22.644H70.6376V21.78H75.8056L75.5336 21.988C75.5336 21.156 75.347 20.5107 74.9736 20.052C74.611 19.5933 74.0723 19.364 73.3576 19.364C72.579 19.364 71.9763 19.636 71.5496 20.18C71.123 20.7133 70.9096 21.444 70.9096 22.372V22.516C70.9096 23.4973 71.1496 24.2387 71.6296 24.74C72.1203 25.2413 72.7976 25.492 73.6616 25.492C74.1416 25.492 74.5896 25.4227 75.0056 25.284C75.4216 25.1453 75.8216 24.916 76.2056 24.596L76.6856 25.604C76.323 25.9347 75.8696 26.1907 75.3256 26.372C74.7923 26.5533 74.2323 26.644 73.6456 26.644ZM81.7724 26.644C81.0684 26.644 80.4497 26.4787 79.9164 26.148C79.383 25.8173 78.967 25.3373 78.6684 24.708C78.3697 24.0787 78.2204 23.332 78.2204 22.468C78.2204 21.604 78.3697 20.8627 78.6684 20.244C78.967 19.6147 79.383 19.1347 79.9164 18.804C80.4497 18.4733 81.0684 18.308 81.7724 18.308C82.487 18.308 83.1057 18.4893 83.6284 18.852C84.1617 19.204 84.5137 19.6893 84.6844 20.308H84.4924L84.6684 18.452H86.0764C86.0444 18.772 86.0124 19.092 85.9804 19.412C85.959 19.732 85.9484 20.0467 85.9484 20.356V26.5H84.4924V24.66H84.6684C84.4977 25.268 84.1457 25.7533 83.6124 26.116C83.0897 26.468 82.4764 26.644 81.7724 26.644ZM82.1084 25.492C82.8337 25.492 83.415 25.236 83.8524 24.724C84.2897 24.212 84.5084 23.46 84.5084 22.468C84.5084 21.476 84.2897 20.7293 83.8524 20.228C83.415 19.7267 82.8337 19.476 82.1084 19.476C81.383 19.476 80.7964 19.7267 80.3484 20.228C79.911 20.7293 79.6924 21.476 79.6924 22.468C79.6924 23.46 79.911 24.212 80.3484 24.724C80.7857 25.236 81.3724 25.492 82.1084 25.492ZM91.3959 26.644C90.5532 26.644 89.9132 26.4147 89.4759 25.956C89.0492 25.4867 88.8359 24.7827 88.8359 23.844V19.572H87.2679V18.452H88.8359V16.292L90.2919 15.892V18.452H92.5639V19.572H90.2919V23.716C90.2919 24.3347 90.3985 24.7773 90.6119 25.044C90.8359 25.3 91.1559 25.428 91.5719 25.428C91.7852 25.428 91.9665 25.412 92.1159 25.38C92.2759 25.3373 92.4199 25.2893 92.5479 25.236V26.436C92.3879 26.5 92.2012 26.548 91.9879 26.58C91.7852 26.6227 91.5879 26.644 91.3959 26.644ZM97.6769 26.644C96.3969 26.644 95.3835 26.276 94.6369 25.54C93.9009 24.804 93.5329 23.7907 93.5329 22.5C93.5329 21.6467 93.6929 20.9107 94.0129 20.292C94.3435 19.6627 94.7969 19.1773 95.3729 18.836C95.9489 18.484 96.6209 18.308 97.3889 18.308C98.1249 18.308 98.7489 18.468 99.2609 18.788C99.7729 19.0973 100.162 19.54 100.429 20.116C100.696 20.692 100.829 21.3747 100.829 22.164V22.644H94.6689V21.78H99.8369L99.5649 21.988C99.5649 21.156 99.3782 20.5107 99.0049 20.052C98.6422 19.5933 98.1035 19.364 97.3889 19.364C96.6102 19.364 96.0075 19.636 95.5809 20.18C95.1542 20.7133 94.9409 21.444 94.9409 22.372V22.516C94.9409 23.4973 95.1809 24.2387 95.6609 24.74C96.1515 25.2413 96.8289 25.492 97.6929 25.492C98.1729 25.492 98.6209 25.4227 99.0369 25.284C99.4529 25.1453 99.8529 24.916 100.237 24.596L100.717 25.604C100.354 25.9347 99.9009 26.1907 99.3569 26.372C98.8235 26.5533 98.2635 26.644 97.6769 26.644ZM110.022 26.644C109.318 26.644 108.7 26.4787 108.166 26.148C107.633 25.8173 107.217 25.3373 106.918 24.708C106.62 24.0787 106.47 23.332 106.47 22.468C106.47 21.604 106.62 20.8627 106.918 20.244C107.217 19.6147 107.633 19.1347 108.166 18.804C108.7 18.4733 109.318 18.308 110.022 18.308C110.737 18.308 111.356 18.4893 111.878 18.852C112.412 19.204 112.764 19.6893 112.934 20.308H112.742L112.918 18.452H114.326C114.294 18.772 114.262 19.092 114.23 19.412C114.209 19.732 114.198 20.0467 114.198 20.356V26.5H112.742V24.66H112.918C112.748 25.268 112.396 25.7533 111.862 26.116C111.34 26.468 110.726 26.644 110.022 26.644ZM110.358 25.492C111.084 25.492 111.665 25.236 112.102 24.724C112.54 24.212 112.758 23.46 112.758 22.468C112.758 21.476 112.54 20.7293 112.102 20.228C111.665 19.7267 111.084 19.476 110.358 19.476C109.633 19.476 109.046 19.7267 108.598 20.228C108.161 20.7293 107.942 21.476 107.942 22.468C107.942 23.46 108.161 24.212 108.598 24.724C109.036 25.236 109.622 25.492 110.358 25.492ZM125.033 26.644C124.318 26.644 123.699 26.468 123.177 26.116C122.654 25.7533 122.307 25.2573 122.137 24.628H122.313V26.5H120.857V14.724H122.313V20.292H122.137C122.318 19.6733 122.665 19.188 123.177 18.836C123.699 18.484 124.318 18.308 125.033 18.308C125.747 18.308 126.371 18.4787 126.905 18.82C127.438 19.1507 127.849 19.6253 128.137 20.244C128.435 20.8627 128.585 21.6093 128.585 22.484C128.585 23.348 128.435 24.0947 128.137 24.724C127.849 25.3427 127.433 25.8173 126.889 26.148C126.355 26.4787 125.737 26.644 125.033 26.644ZM124.697 25.492C125.422 25.492 126.003 25.2413 126.441 24.74C126.889 24.228 127.113 23.476 127.113 22.484C127.113 21.492 126.889 20.7453 126.441 20.244C126.003 19.732 125.422 19.476 124.697 19.476C123.961 19.476 123.374 19.7267 122.937 20.228C122.51 20.7293 122.297 21.476 122.297 22.468C122.297 23.46 122.51 24.212 122.937 24.724C123.374 25.236 123.961 25.492 124.697 25.492ZM133.936 26.644C133.147 26.644 132.464 26.4787 131.888 26.148C131.312 25.8067 130.864 25.3267 130.544 24.708C130.224 24.0787 130.064 23.332 130.064 22.468C130.064 21.6147 130.224 20.8787 130.544 20.26C130.864 19.6307 131.312 19.1507 131.888 18.82C132.464 18.4787 133.147 18.308 133.936 18.308C134.725 18.308 135.408 18.4787 135.984 18.82C136.571 19.1507 137.019 19.6307 137.328 20.26C137.648 20.8787 137.808 21.6147 137.808 22.468C137.808 23.332 137.648 24.0787 137.328 24.708C137.019 25.3267 136.571 25.8067 135.984 26.148C135.408 26.4787 134.725 26.644 133.936 26.644ZM133.936 25.492C134.661 25.492 135.243 25.236 135.68 24.724C136.117 24.212 136.336 23.46 136.336 22.468C136.336 21.476 136.117 20.7293 135.68 20.228C135.243 19.7267 134.661 19.476 133.936 19.476C133.2 19.476 132.613 19.7267 132.176 20.228C131.749 20.7293 131.536 21.476 131.536 22.468C131.536 23.46 131.749 24.212 132.176 24.724C132.613 25.236 133.2 25.492 133.936 25.492ZM143.155 26.644C142.366 26.644 141.683 26.4787 141.107 26.148C140.531 25.8067 140.083 25.3267 139.763 24.708C139.443 24.0787 139.283 23.332 139.283 22.468C139.283 21.6147 139.443 20.8787 139.763 20.26C140.083 19.6307 140.531 19.1507 141.107 18.82C141.683 18.4787 142.366 18.308 143.155 18.308C143.944 18.308 144.627 18.4787 145.203 18.82C145.79 19.1507 146.238 19.6307 146.547 20.26C146.867 20.8787 147.027 21.6147 147.027 22.468C147.027 23.332 146.867 24.0787 146.547 24.708C146.238 25.3267 145.79 25.8067 145.203 26.148C144.627 26.4787 143.944 26.644 143.155 26.644ZM143.155 25.492C143.88 25.492 144.462 25.236 144.899 24.724C145.336 24.212 145.555 23.46 145.555 22.468C145.555 21.476 145.336 20.7293 144.899 20.228C144.462 19.7267 143.88 19.476 143.155 19.476C142.419 19.476 141.832 19.7267 141.395 20.228C140.968 20.7293 140.755 21.476 140.755 22.468C140.755 23.46 140.968 24.212 141.395 24.724C141.832 25.236 142.419 25.492 143.155 25.492ZM148.982 26.5V14.724H150.438V22.004H150.47L154.102 18.452H155.91L151.59 22.676L151.606 21.988L156.294 26.5H154.438L150.47 22.756H150.438V26.5H148.982Z" fill="#FEFEFE"/>
</svg>
